# xmcd CD database file
#
# Track frame offsets:
#	150
#	5744
#	13982
#	27953
#	39169
#	49176
#	58540
#	66415
#	79922
#	92793
#	108255
#	118332
#	132453
#	140369
#	156066
#	169332
#
# Disc length: 2426 seconds
#
# Revision: 0
# Processed by: cddbd v1.5.1PL0 Copyright (c) Steve Scherf et al.
# Submitted via: CDex 1.51
#
DISCID=df097810
DTITLE=Morris and Dexter Ardoin - Cajun creole music Louisiana
DYEAR=2000
DGENRE=Blues
TTITLE0=Quoi faire
TTITLE1=Valse de Bayou Teche
TTITLE2=Blues de Basile
TTITLE3=Jongle à moi
TTITLE4=Shoo back
TTITLE5=Lacassine special
TTITLE6=Johnny can't dance
TTITLE7=Grand mamou
TTITLE8=Allons danser
TTITLE9=Peetite ou grosse
TTITLE10=Eunice two step
TTITLE11=Jolie bassette
TTITLE12=Two step de Lac Charles
TTITLE13=Chère toute toute
TTITLE14=Valse de Cherokée
TTITLE15=Zarico à Dexter
EXTD=YEAR: 2000
EXTT0=
EXTT1=
EXTT2=
EXTT3=
EXTT4=
EXTT5=
EXTT6=
EXTT7=
EXTT8=
EXTT9=
EXTT10=
EXTT11=
EXTT12=
EXTT13=
EXTT14=
EXTT15=
PLAYORDER=
